<svg width="1741" height="471" viewBox="0 0 1741 471" fill="none" xmlns="http://www.w3.org/2000/svg">
<path d="M1738.66 241.428H1705.25V147.71C1705.25 137.548 1685.81 136.666 1678.5 137.684C1672.57 138.522 1655.15 147.574 1655.15 153.278V241.428H1621.74V153.278C1621.74 152.78 1618.44 145.243 1617.78 144.248C1606.69 127.794 1569.78 143.682 1569.78 155.133V241.428H1538.23V107.833H1569.78V124.535C1594.92 105.412 1632.99 93.0999 1652.36 126.368C1668.7 111.251 1686.76 103.307 1709.42 106.475C1737.48 110.391 1739.02 131.212 1740.49 155.179C1742.26 183.921 1738.36 212.799 1738.66 241.45V241.428Z" fill="#004E68"/>
<path d="M599.719 50.8919C611.917 51.8198 626.922 54.5129 637.4 60.8271C661.616 75.4471 662.725 143.478 639.392 157.147C631.833 161.561 624.41 159.433 617.847 164.095L665.373 233.529H626.379L585.166 167.241L568.351 166.924V231.606H530.307C529.809 230.202 532.208 229.342 532.208 228.754V50.8693H599.741L599.719 50.8919ZM568.329 138.408H599.719C603.928 138.408 615.606 132.072 617.892 128.066C622.508 119.986 622.735 98.1467 617.575 90.1125C616.059 87.7588 605.603 81.3314 603.521 81.3314H568.329V138.408Z" fill="#004E68"/>
<path d="M1302.59 241.428L1353.58 70.6945L1403.5 68.748L1454.74 241.428H1417.63L1408.41 205.172H1348.85L1339.68 241.428H1302.57H1302.59ZM1356.41 176.497H1400.95L1379.58 98.554L1356.41 176.497Z" fill="#004E68"/>
<path d="M1078.2 47.0894V231.628H1045.85V220.221C1037.82 222.801 1032.48 229.003 1024.08 231.741C1008.15 236.901 985.406 236.856 971.012 227.532C944.94 210.58 946.954 141.169 959.9 116.229C974.995 87.1701 1018.52 84.4543 1043.93 100.387V47.112H1078.17L1078.2 47.0894ZM1011.18 119.85C981.739 123.426 980.11 169.776 988.371 191.117C996.767 212.753 1038.07 207.05 1043.12 191.774C1044.77 186.817 1045.11 137.865 1043.95 131.709C1042.28 122.86 1019.04 118.877 1011.16 119.828L1011.18 119.85Z" fill="#004E68"/>
<path d="M1130.09 85.6085L1162.43 195.87C1162.43 195.87 1162.46 195.915 1162.5 195.938C1166.26 196.911 1168.68 185.075 1169.61 182.155C1179.56 150.222 1187.83 117.61 1197.65 85.6311C1197.65 85.5859 1197.69 85.5632 1197.74 85.5858C1209.37 90.7911 1221.57 83.7074 1233.7 85.5858C1233.74 85.5858 1233.77 85.6312 1233.77 85.6764L1176.49 259.419C1172.66 266.978 1168.88 272.455 1161.37 276.642C1156.87 279.154 1144.1 283.432 1139.62 283.432H1091.17C1091.17 283.432 1091.1 283.409 1091.1 283.364V253.06C1091.1 253.06 1091.12 252.992 1091.17 252.992H1131.99C1144.24 252.992 1150.71 236.81 1151.98 226.445C1151.98 226.4 1151.98 226.377 1151.91 226.377L1138.94 224.227C1138.94 224.227 1138.9 224.227 1138.9 224.182L1094.92 85.6764C1094.92 85.6764 1094.92 85.5858 1094.99 85.5858H1130.05C1130.05 85.5858 1130.11 85.5859 1130.11 85.6311L1130.09 85.6085Z" fill="#004E68"/>
<path d="M1485.86 388.579C1460.15 394.101 1432.95 392.064 1406.56 392.471C1406.24 397.903 1408.44 404.602 1411.99 408.698C1423.76 422.232 1466.19 415.805 1482.78 413.27L1484.43 439.183C1450.03 442.691 1389.38 454.346 1377.93 409.83C1367.41 368.912 1374.13 317.38 1424.75 312.785C1480.81 307.693 1495.57 337.114 1485.84 388.601L1485.86 388.579ZM1458.54 368.188C1466.83 326.229 1402.73 329.646 1406.56 368.188H1458.54Z" fill="#004E68"/>
<path d="M941.729 313.215C997.063 306.471 1019.13 335.055 1014.87 388.081C1012.18 421.621 998.647 440.02 963.84 442.759C907.261 447.217 891.486 420.195 895.243 367.237C897.325 337.703 911.04 316.95 941.729 313.215ZM943.381 340.849C922.899 344.99 924.732 387.266 929.394 402.565C934.373 418.905 966.555 421.259 975.834 409.694C983.755 399.827 984.004 366.671 980.338 355.084C975.404 339.445 957.48 337.997 943.381 340.849Z" fill="#004E68"/>
<path d="M789.032 229.727C761.897 233.914 708.599 240.749 687.258 220.199C665.758 199.491 668.111 130.578 688.163 108.874C706.879 88.596 755.447 85.6991 777.49 101.428C797.27 115.528 796.139 150.856 792.517 172.31C780.704 182.63 709.889 175.072 706.133 180.164C706.834 219.452 763.662 201.573 789.032 203.09V229.727ZM762.395 151.716C771.878 107.561 704.48 110.526 705.386 149.023C705.589 157.328 717.901 151.806 723.31 151.625C736.301 151.218 749.427 152.078 762.395 151.716Z" fill="#004E68"/>
<path d="M1257.53 440.971H1228.06L1227.18 432.28C1202.13 448.462 1155.69 449.842 1151.84 412.342C1150.07 395.096 1153.06 375.18 1169.65 366.083C1173.75 363.842 1190.09 359.497 1194.27 359.497H1223.74C1223.97 359.497 1227.52 362.665 1228.06 358.614C1228.22 357.46 1225.32 348.294 1224.4 346.71C1216.27 332.995 1176.46 340.034 1162.2 340.441L1163.83 315.184C1185.99 312.491 1231.55 307.535 1248.95 323.875C1251.26 326.047 1257.53 337.25 1257.53 339.558V440.948V440.971ZM1225.82 409.286C1229.9 404.353 1228.04 388.488 1227.32 381.925L1225.23 380.544C1206.47 378.734 1173.59 380.703 1182.08 408.132C1186.94 423.861 1218.13 418.633 1225.85 409.286H1225.82Z" fill="#004E68"/>
<path d="M871.05 440.971H839.863L838.166 356.872C834.862 328.718 786.136 346.235 786.136 358.637V438.346C786.136 438.866 788.331 439.681 787.878 440.948H754.949V314.437H786.136V330.031C804.671 313.17 851.179 301.334 865.459 327.835C867.27 331.185 871.072 346.619 871.072 349.969V440.948L871.05 440.971Z" fill="#004E68"/>
<path d="M925.997 231.628H893.657L892.729 222.123C855.477 246.406 807.974 240.409 809.875 186.863C811.459 142.256 855.477 142.799 889.764 145.266L893.612 143.116C891.349 130.827 892.231 125.644 878.901 121.774C860.57 116.478 839.816 120.846 821.371 123.177V94.6386C845.474 93.2354 900.514 86.1744 917.511 106C919.638 108.467 926.02 119.986 926.02 122.227V231.628H925.997ZM893.544 168.938C874.081 166.155 838.232 165.747 842.351 194.376C845.61 217.076 884.672 209.969 893.25 194.127L893.544 168.938Z" fill="#004E68"/>
<path d="M723.741 440.971H692.555C691.786 420.557 693.596 399.872 692.555 379.458C692.193 372.601 691.604 361.737 690.722 355.287C687.689 333.154 650.483 341.12 640.57 355.174V440.971H609.384V314.46H638.85V328.31C650.618 324.214 660.441 315.026 673.092 313.17C694.546 310.024 716.703 314.528 721.614 338.246C722.067 340.418 723.764 351.938 723.764 353.432V440.948L723.741 440.971Z" fill="#004E68"/>
<path d="M1054.75 314.46L1083.36 413.202L1113.68 314.46H1146.61L1106.58 440.79L1064.21 441.084L1020.1 314.46H1054.75Z" fill="#004E68"/>
<path d="M1325.11 279.811V314.482H1361.5V340.486H1325.11V407.204C1325.11 408.11 1330.47 415.012 1331.17 415.012H1361.5C1360.39 420.376 1364.26 438.843 1358.6 440.722C1345.07 445.203 1309.74 444.615 1300.37 431.941C1287.93 415.08 1297.18 343.768 1293.9 340.486L1277.67 340.26C1272.15 338.449 1275.91 319.778 1274.82 314.505H1293.9V279.856H1325.09L1325.11 279.811Z" fill="#004E68"/>
<path d="M572.968 279.811L574.711 440.971H540.039V279.811H572.968Z" fill="#004E68"/>
<path d="M1500.03 107.833H1472.55C1470.92 107.833 1469.59 109.16 1469.59 110.798V238.463C1469.59 240.1 1470.92 241.428 1472.55 241.428H1500.03C1501.67 241.428 1502.99 240.1 1502.99 238.463V110.798C1502.99 109.16 1501.67 107.833 1500.03 107.833Z" fill="#004E68"/>
<path d="M1496.63 63.2941H1475.95C1472.44 63.2941 1469.59 66.1413 1469.59 69.6536V86.6273C1469.59 90.1395 1472.44 92.9868 1475.95 92.9868H1496.63C1500.15 92.9868 1502.99 90.1395 1502.99 86.6273V69.6536C1502.99 66.1413 1500.15 63.2941 1496.63 63.2941Z" fill="#004E68"/>
<path fill-rule="evenodd" clip-rule="evenodd" d="M148.398 18.0081C70.6361 49.0813 7.87853 130.103 0.432718 214.451L0.455372 214.428C-0.289921 222.785 0.0313873 231.62 0.3528 240.457C0.490109 244.232 0.627438 248.008 0.681633 251.748C0.77216 257.474 7.10911 260.891 11.9523 257.858C15.0981 255.889 18.3344 253.875 22.0007 252.178C38.1371 244.709 101.551 221.15 111.667 241.609C118.822 258.75 88.9882 260.538 68.9908 261.737C65.0142 261.975 61.4265 262.19 58.5961 262.498C53.0513 263.086 40.8529 270.215 37.5713 276.122L37.526 276.19C35.3534 280.105 38.2049 284.926 42.686 284.926H82.4951C86.5914 284.926 105.308 279.766 109.857 277.616C116.892 274.283 121.598 268.32 125.993 262.751C129.954 257.732 133.664 253.032 138.599 250.865C144.229 248.388 153.642 246.934 162.863 245.51C169.397 244.501 175.834 243.507 180.762 242.175C195.352 238.242 205.766 235.998 214.202 234.18C235.912 229.502 244.517 227.648 277.489 207.095C287.198 199.627 299.148 202.32 294.531 211.373C289.733 220.788 281.721 227.871 275.453 232.782C269.612 237.369 262.347 242.478 254.75 247.82C243.98 255.394 232.543 263.436 223.558 271.12C194.816 295.676 187.913 328.831 192.281 362.371C194.295 377.829 177.141 401.094 168.405 409.943C154.215 424.314 136.336 430.153 116.488 432.869C112.414 433.412 112.324 437.848 115.175 440.835C118.638 444.479 124.907 448.213 139.617 446.063C223.649 433.819 312.546 352.187 357.9 291.602C359.901 288.927 364.254 281.752 368.795 274.268C375.085 263.9 381.736 252.938 382.998 252.517C385.397 251.725 389.516 251.091 388.543 255.754C385.872 268.54 370.732 297.283 363.761 309.594C325.22 377.783 262.485 430.04 192.259 463.422C189.158 464.893 190.267 468.536 193.503 469.713C208.485 475.19 252.3 462.539 278.553 444.004C323.613 412.183 359.733 367.69 389.969 321.951C397.418 318.918 389.213 336.844 387.245 341.146C387.054 341.562 386.922 341.85 386.868 341.98C365.685 392.29 330.085 431.33 289.394 466.432C288.343 471.281 292.922 470.448 296.154 469.859C296.542 469.788 296.91 469.721 297.247 469.668C353.532 460.593 416.968 406.639 444.647 358.162C557.307 160.814 358.941 -66.0911 148.398 18.0081ZM374.143 172.696C376.075 163.057 377.331 156.787 360.208 158.098L325.106 171.564L138.599 237.399C135.766 238.388 131.214 237.412 131.154 234.071C131.155 234.057 131.155 234.034 131.153 234.004C131.153 234.027 131.153 234.049 131.154 234.071C131.117 234.399 130.27 230.981 136.336 228.143L368.853 141.328C370.502 140.141 367.459 137.177 364.091 133.895C362.002 131.86 359.787 129.703 358.488 127.772C377.408 127.115 383.519 112.654 386.506 97.7168L401.601 118.515L412.442 113.401C409.177 127.463 417.406 124.64 426.621 121.48C431.138 119.93 435.893 118.3 439.645 118.538L419.231 140.989L425.749 167.06C401.919 155.827 393.596 164.35 380.779 177.473C378.283 180.028 375.617 182.758 372.633 185.55C372.497 180.909 373.374 176.535 374.143 172.696ZM80.3312 194.579C84.8549 193.463 89.4016 192.342 93.9051 192.434C92.7894 195.775 89.5133 197.329 86.3987 198.807C82.9947 200.423 79.7835 201.946 79.7963 205.61C80.5091 210.279 97.8625 220.423 102.434 221.596C139.599 231.056 144.515 176.326 117.133 162.93C100.289 154.695 85.7438 162.114 71.069 169.599C57.52 176.51 43.8605 183.478 28.1787 178.232C37.8386 190.112 53.3484 197.446 68.8829 196.663C72.6554 196.472 76.485 195.528 80.3312 194.579Z" fill="#004E68"/>
<path d="M18.3352 326.002C15.6873 318.896 21.3904 311.495 28.9268 312.31C59.8416 315.705 89.4664 318.058 106.734 349.811C122.531 378.847 105.263 392.154 86.049 408.381C82.0432 411.776 76.0911 411.55 72.3569 407.838C49.0689 384.709 29.7868 356.872 18.3125 325.98L18.3352 326.002Z" fill="#004E68"/>
<path d="M1248.84 241.405C1260.99 241.405 1270.84 231.556 1270.84 219.407C1270.84 207.258 1260.99 197.409 1248.84 197.409C1236.69 197.409 1226.84 207.258 1226.84 219.407C1226.84 231.556 1236.69 241.405 1248.84 241.405Z" fill="#004E68"/>
</svg>
